<svg id="icon" viewBox="0 0 512 512" xmlns="http://www.w3.org/2000/svg">
  <!-- トルマモくんのアイコン：撮る四隅＋吹き出しのカード（顔）＋右上の時計。2026-10-06 -->
  <defs><linearGradient id="gicon" gradientUnits="userSpaceOnUse" x1="0" y1="0" x2="512" y2="512"><stop offset="0" stop-color="#ff8a5b"/><stop offset="1" stop-color="#ff5e7e"/></linearGradient></defs>
  <rect width="512" height="512" fill="url(#gicon)"/>
  <g transform="translate(256 256) scale(.86) translate(-256 -256)">
  <rect x="96" y="150" width="320" height="212" rx="30" fill="#fff"/>
  <path d="M166 358 l-18 46 l66 -46 z" fill="#fff"/>
  <ellipse cx="176" cy="284" rx="24" ry="15" fill="#ffb3a7"/>
  <ellipse cx="336" cy="284" rx="24" ry="15" fill="#ffb3a7"/>
  <g fill="none" stroke="#236376" stroke-width="15" stroke-linecap="round" stroke-linejoin="round">
    <path d="M186 246 l20 -16 l20 16 M286 246 l20 -16 l20 16"/>
    <path d="M206 290 q50 38 100 0"/>
  </g>
  <g fill="none" stroke="#fff" stroke-width="22" stroke-linecap="round">
    <path d="M70 130 v-40 a20 20 0 0 1 20 -20 h40"/><path d="M442 130 v-40 a20 20 0 0 0 -20 -20 h-40"/>
    <path d="M70 382 v40 a20 20 0 0 0 20 20 h40"/><path d="M442 382 v40 a20 20 0 0 1 -20 20 h-40"/>
  </g>
  <circle cx="396" cy="174" r="44" fill="url(#gicon)"/>
  <circle cx="396" cy="174" r="34" fill="#fff"/>
  <path d="M396 174 v-18 M396 174 l-13 8" fill="none" stroke="#236376" stroke-width="10" stroke-linecap="round"/>
  </g>
</svg>
